<svg width="24" height="24" viewBox="0 0 24 24" fill="none" xmlns="http://www.w3.org/2000/svg">
    <path d="M8.31426 3.37378H6.19694C4.63778 3.37378 3.37384 4.63772 3.37384 6.19688V8.3142C3.37384 9.87335 4.63778 11.1373 6.19694 11.1373H8.31426C9.87342 11.1373 11.1374 9.87335 11.1374 8.3142V6.19688C11.1374 4.63772 9.87342 3.37378 8.31426 3.37378Z" fill="#6E92C8"/>
    <path d="M17.803 3.37378H15.6857C14.1266 3.37378 12.8626 4.63772 12.8626 6.19688V8.3142C12.8626 9.87335 14.1266 11.1373 15.6857 11.1373H17.803C19.3622 11.1373 20.6261 9.87335 20.6261 8.3142V6.19688C20.6261 4.63772 19.3622 3.37378 17.803 3.37378Z" fill="#6E92C8"/>
    <path d="M8.31426 12.8625H6.19694C4.63778 12.8625 3.37384 14.1265 3.37384 15.6856V17.803C3.37384 19.3621 4.63778 20.6261 6.19694 20.6261H8.31426C9.87342 20.6261 11.1374 19.3621 11.1374 17.803V15.6856C11.1374 14.1265 9.87342 12.8625 8.31426 12.8625Z" fill="#6E92C8"/>
    <path d="M17.803 12.8625H15.6857C14.1266 12.8625 12.8626 14.1265 12.8626 15.6856V17.803C12.8626 19.3621 14.1266 20.6261 15.6857 20.6261H17.803C19.3622 20.6261 20.6261 19.3621 20.6261 17.803V15.6856C20.6261 14.1265 19.3622 12.8625 17.803 12.8625Z" fill="#6E92C8"/>
</svg>
