<svg width="24" height="24" viewBox="0 0 24 24" fill="none" xmlns="http://www.w3.org/2000/svg">
<path d="M16.0808 20.1615C14.3801 20.1597 13.0019 18.7815 13 17.0808V17.0192C13.0339 15.3261 14.4278 13.9778 16.121 14.0003C17.8142 14.0227 19.1719 15.4076 19.1608 17.1009C19.1498 18.7942 17.7741 20.1612 16.0808 20.1615ZM14.8841 17.171C14.764 17.0514 14.5696 17.0515 14.4497 17.1714C14.3296 17.2915 14.3296 17.4862 14.4497 17.6063L15.4646 18.6212L17.712 16.3737C17.8321 16.2537 17.8324 16.0591 17.7128 15.9386C17.5925 15.8175 17.3968 15.8171 17.2761 15.9378L15.4646 17.7493L14.8841 17.171Z" fill="#6E92C8"/>
<path fill-rule="evenodd" clip-rule="evenodd" d="M5 7C5 5.11438 5 4.17157 5.58579 3.58579C6.17157 3 7.11438 3 9 3H9.95627C13.7275 3 15.6131 3 16.7847 4.17157C17.9563 5.34315 17.9563 7.22876 17.9563 11V13.703C17.3679 13.3626 16.6848 13.1678 15.9562 13.1678C13.7471 13.1678 11.9562 14.9587 11.9562 17.1678C11.9562 18.1548 12.3137 19.0583 12.9062 19.7559H9C7.11438 19.7559 6.17157 19.7559 5.58579 19.1701C5 18.5843 5 17.6415 5 15.7559V7ZM7.5625 7C7.25186 7 7 7.25586 7 7.57143C7 7.887 7.25186 8.14286 7.5625 8.14286H12.0625C12.3731 8.14286 12.625 7.887 12.625 7.57143C12.625 7.25586 12.3731 7 12.0625 7H7.5625ZM14.3125 7C14.0019 7 13.75 7.25586 13.75 7.57143C13.75 7.887 14.0019 8.14286 14.3125 8.14286H15.4375C15.7481 8.14286 16 7.887 16 7.57143C16 7.25586 15.7481 7 15.4375 7H14.3125ZM7 11C7 10.6844 7.25186 10.4286 7.5625 10.4286H12.0625C12.3731 10.4286 12.625 10.6844 12.625 11C12.625 11.3156 12.3731 11.5714 12.0625 11.5714H7.5625C7.25186 11.5714 7 11.3156 7 11ZM14.3125 10.4286C14.0019 10.4286 13.75 10.6844 13.75 11C13.75 11.3156 14.0019 11.5714 14.3125 11.5714H15.4375C15.7481 11.5714 16 11.3156 16 11C16 10.6844 15.7481 10.4286 15.4375 10.4286H14.3125ZM7.5625 13.8571C7.25186 13.8571 7 14.113 7 14.4286C7 14.7441 7.25186 15 7.5625 15H12.0625C12.3731 15 12.625 14.7441 12.625 14.4286C12.625 14.113 12.3731 13.8571 12.0625 13.8571H7.5625Z" fill="#6E92C8"/>
</svg>
