<svg width="24" height="24" viewBox="0 0 24 24" fill="none" xmlns="http://www.w3.org/2000/svg">
<path d="M13.6884 21H10.3119C9.87606 21 9.49893 20.7057 9.40565 20.2926L9.02812 18.597C8.52447 18.3829 8.04691 18.1152 7.60424 17.7987L5.90022 18.3252C5.48465 18.4538 5.03289 18.2841 4.81492 17.9175L3.12296 15.0816C2.90737 14.7149 2.98165 14.2522 3.30199 13.9665L4.62383 12.7965C4.56372 12.2665 4.56372 11.7317 4.62383 11.2017L3.30199 10.0344C2.98117 9.74853 2.90687 9.28535 3.12296 8.9184L4.81121 6.0807C5.02918 5.71413 5.48094 5.54442 5.89651 5.673L7.60053 6.1995C7.82692 6.03674 8.0626 5.8865 8.30644 5.7495C8.54051 5.62142 8.78141 5.50546 9.02812 5.4021L9.40658 3.7083C9.49941 3.29517 9.87612 3.00044 10.3119 3H13.6884C14.1242 3.00044 14.5009 3.29517 14.5938 3.7083L14.9759 5.403C15.2364 5.51416 15.4901 5.63977 15.7357 5.7792C15.965 5.9077 16.1868 6.04862 16.3998 6.2013L18.1048 5.6748C18.5201 5.5467 18.9713 5.71634 19.1891 6.0825L20.8774 8.9202C21.093 9.28694 21.0187 9.74956 20.6984 10.0353L19.3765 11.2053C19.4366 11.7353 19.4366 12.2701 19.3765 12.8001L20.6984 13.9701C21.0187 14.2558 21.093 14.7185 20.8774 15.0852L19.1891 17.9229C18.9713 18.2891 18.5201 18.4587 18.1048 18.3306L16.3998 17.8041C16.1841 17.9583 15.9599 18.101 15.7282 18.2316C15.485 18.3683 15.2342 18.4918 14.9769 18.6015L14.5938 20.2926C14.5006 20.7054 14.1239 20.9996 13.6884 21ZM11.9965 8.4C9.94725 8.4 8.28603 10.0118 8.28603 12C8.28603 13.9882 9.94725 15.6 11.9965 15.6C14.0457 15.6 15.7069 13.9882 15.7069 12C15.7069 10.0118 14.0457 8.4 11.9965 8.4Z" fill="#6E92C8"/>
</svg>
