<svg aria-hidden="true" style="position:absolute;width:0;height:0;overflow:hidden" xmlns="http://www.w3.org/2000/svg">
    <defs>
        <symbol id="user" viewBox="0 0 20 20"><path fill="#6e92c8" style="fill:var(--color1, #6e92c8)" d="M10 9.167a2.917 2.917 0 1 0 0-5.834 2.917 2.917 0 0 0 0 5.834zM10 10c-1.436.002-2.813.634-3.828 1.759S4.585 14.409 4.584 16c0 .177.063.346.176.471s.266.195.426.195h9.63c.16 0 .313-.07.426-.195s.176-.295.176-.471c-.002-1.591-.573-3.116-1.588-4.241S11.438 10.001 10.002 10z"/></symbol>
        <symbol id="settings" viewBox="0 0 20 20"><path fill="#6e92c8" style="fill:var(--color1, #6e92c8)" d="M11.407 17.5H8.593a.768.768 0 0 1-.755-.589l-.315-1.413a6.246 6.246 0 0 1-1.187-.665l-1.42.439a.783.783 0 0 1-.904-.34l-1.41-2.363a.737.737 0 0 1 .149-.929l1.102-.975a5.906 5.906 0 0 1 0-1.329l-1.102-.973a.739.739 0 0 1-.149-.93l1.407-2.365a.784.784 0 0 1 .904-.34l1.42.439c.189-.136.385-.261.588-.375.195-.107.396-.203.601-.289l.315-1.412a.767.767 0 0 1 .754-.59h2.814c.363 0 .677.246.754.59l.318 1.412a6.414 6.414 0 0 1 1.186.665l1.421-.439a.784.784 0 0 1 .904.34l1.407 2.365a.737.737 0 0 1-.149.929l-1.102.975c.05.442.05.887 0 1.329l1.102.975a.738.738 0 0 1 .149.929l-1.407 2.365a.784.784 0 0 1-.904.34l-1.421-.439a6.384 6.384 0 0 1-1.186.664l-.319 1.409a.768.768 0 0 1-.754.589zM9.997 7c-1.708 0-3.092 1.343-3.092 3s1.384 3 3.092 3c1.708 0 3.092-1.343 3.092-3s-1.384-3-3.092-3z"/></symbol>
        <symbol id="exam" viewBox="0 0 20 20"><path fill="#6e92c8" style="fill:var(--color1, #6e92c8)" d="M13.401 16.801a2.57 2.57 0 0 1-2.567-2.567v-.051a2.568 2.568 0 1 1 2.567 2.619zm-.998-2.492a.256.256 0 1 0-.362.362l.846.846 1.873-1.873a.257.257 0 0 0-.363-.364l-1.51 1.51-.484-.482z"/><path fill="#6e92c8" style="fill:var(--color1, #6e92c8)" d="M4.167 5.833c0-1.571 0-2.357.488-2.845S5.929 2.5 7.5 2.5h.797c3.143 0 4.714 0 5.69.976s.976 2.548.976 5.69v2.252a3.333 3.333 0 0 0-4.208 5.044H7.5c-1.571 0-2.357 0-2.845-.488s-.488-1.274-.488-2.845V5.832zm2.135 0c-.259 0-.469.213-.469.476s.21.476.469.476h3.75c.259 0 .469-.213.469-.476s-.21-.476-.469-.476h-3.75zm5.625 0c-.259 0-.469.213-.469.476s.21.476.469.476h.938c.259 0 .469-.213.469-.476s-.21-.476-.469-.476h-.938zM5.833 9.167c0-.263.21-.476.469-.476h3.75c.259 0 .469.213.469.476s-.21.476-.469.476h-3.75a.472.472 0 0 1-.469-.476zm6.094-.476c-.259 0-.469.213-.469.476s.21.476.469.476h.938c.259 0 .469-.213.469-.476s-.21-.476-.469-.476h-.938zm-5.625 2.857c-.259 0-.469.213-.469.476s.21.476.469.476h3.75c.259 0 .469-.213.469-.476s-.21-.476-.469-.476h-3.75z"/></symbol>
        <symbol id="card" viewBox="0 0 20 20"><path fill="#6e92c8" style="fill:var(--color1, #6e92c8)" d="M6.929 2.811H5.165a2.353 2.353 0 0 0-2.353 2.353v1.764a2.353 2.353 0 0 0 2.353 2.353h1.764a2.353 2.353 0 0 0 2.353-2.353V5.164a2.353 2.353 0 0 0-2.353-2.353zM14.836 2.811h-1.764a2.353 2.353 0 0 0-2.353 2.353v1.764a2.353 2.353 0 0 0 2.353 2.353h1.764a2.353 2.353 0 0 0 2.353-2.353V5.164a2.353 2.353 0 0 0-2.353-2.353zM6.929 10.719H5.165a2.353 2.353 0 0 0-2.353 2.353v1.764a2.353 2.353 0 0 0 2.353 2.353h1.764a2.353 2.353 0 0 0 2.353-2.353v-1.764a2.353 2.353 0 0 0-2.353-2.353zM14.836 10.719h-1.764a2.353 2.353 0 0 0-2.353 2.353v1.764a2.353 2.353 0 0 0 2.353 2.353h1.764a2.353 2.353 0 0 0 2.353-2.353v-1.764a2.353 2.353 0 0 0-2.353-2.353z"/></symbol>
    </defs>
</svg>