<svg width="24" height="24" viewBox="0 0 24 24" fill="none" xmlns="http://www.w3.org/2000/svg">
<path d="M12 11C13.933 11 15.5 9.433 15.5 7.5C15.5 5.567 13.933 4 12 4C10.067 4 8.5 5.567 8.5 7.5C8.5 9.433 10.067 11 12 11Z" fill="#6E92C8"/>
<path d="M12 12C10.2767 12.0021 8.62449 12.7614 7.40592 14.1112C6.18734 15.461 5.50191 17.2911 5.5 19.2C5.5 19.4122 5.57609 19.6157 5.71153 19.7657C5.84698 19.9157 6.03068 20 6.22222 20H17.7778C17.9693 20 18.153 19.9157 18.2885 19.7657C18.4239 19.6157 18.5 19.4122 18.5 19.2C18.4981 17.2911 17.8127 15.461 16.5941 14.1112C15.3755 12.7614 13.7233 12.0021 12 12Z" fill="#6E92C8"/>
</svg>
